<?xml version="1.0" encoding="UTF-8"?>
<svg width="6px" height="10px" viewBox="0 0 6 10" version="1.1" xmlns="http://www.w3.org/2000/svg" xmlns:xlink="http://www.w3.org/1999/xlink">
    <!-- Generator: Sketch 63.1 (92452) - https://sketch.com -->
    <title>形状结合</title>
    <desc>Created with Sketch.</desc>
    <g id="页面-1" stroke="none" stroke-width="1" fill="none" fill-rule="evenodd">
        <g id="列表展示界面" transform="translate(-354.000000, -155.000000)" fill="#C8C8C8">
            <path d="M355.64046,155.279986 L359.719055,159.326245 L359.719055,159.326245 C360.091505,159.695759 360.093885,160.29724 359.724371,160.66969 C359.7226,160.671475 359.720821,160.673253 359.719036,160.675024 L355.64046,164.721228 C355.264158,165.094544 354.657213,165.094543 354.280912,164.721227 C353.908462,164.351733 353.906067,163.750268 354.275561,163.377819 C354.277338,163.376028 354.279122,163.374244 354.280913,163.372467 L357.68,160 L354.280913,156.628747 C353.908463,156.259253 353.906066,155.657788 354.275561,155.285338 C354.277337,155.283548 354.279121,155.281764 354.280912,155.279987 C354.657213,154.906671 355.264158,154.906671 355.64046,155.279986 Z" id="形状结合"></path>
        </g>
    </g>
</svg>