<?xml version="1.0" encoding="UTF-8"?>
<svg width="17px" height="21px" viewBox="0 0 17 21" version="1.1" xmlns="http://www.w3.org/2000/svg" xmlns:xlink="http://www.w3.org/1999/xlink">
    <!-- Generator: Sketch 63.1 (92452) - https://sketch.com -->
    <title>形状结合</title>
    <desc>Created with Sketch.</desc>
    <g id="页面-1" stroke="none" stroke-width="1" fill="none" fill-rule="evenodd">
        <g id="登录" transform="translate(-55.000000, -301.000000)" fill="#0074FF" fill-rule="nonzero" stroke="#0074FF" stroke-width="0.8">
            <g id="password" transform="translate(36.000000, 287.000000)">
                <g id="pass_icon" transform="translate(20.000000, 15.000000)">
                    <path d="M7.38278237,-1.0658141e-14 C10.6965871,-1.0658141e-14 13.3875268,2.60414079 13.3875268,5.80227743 L13.3875268,5.80227743 L13.3875268,8.27660455 L13.6765687,8.27660455 C14.2627946,8.27660455 14.7391032,8.736853 14.7391032,9.30331263 L14.7391032,9.30331263 L14.7391032,15.915942 C14.7391032,17.6113872 13.3101775,18.9921325 11.5555709,18.9921325 L11.5555709,18.9921325 L3.21406489,18.9921325 C1.45945822,18.9921325 0.0305325987,17.6113872 0.0305325987,15.915942 L0.0305325987,15.915942 L0.0305325987,9.30331263 C0.0305325987,8.736853 0.506841139,8.27660455 1.09306703,8.27660455 L1.09306703,8.27660455 L12.2883532,8.27660455 L12.2883532,5.80227743 C12.2883532,3.1863354 10.0859351,1.0621118 7.38278237,1.0621118 C4.67555862,1.0621118 2.47721151,3.19026915 2.47721151,5.80227743 C2.47721151,6.09730849 2.23295072,6.33333333 1.92762473,6.33333333 C1.62229875,6.33333333 1.37803796,6.09730849 1.37803796,5.80227743 C1.37803796,2.60020704 4.07304867,-1.0658141e-14 7.38278237,-1.0658141e-14 Z M13.6399296,9.33871636 L1.13377717,9.33871636 L1.13377717,15.915942 C1.13377717,17.0291925 2.07011019,17.9300207 3.2181359,17.9300207 L3.2181359,17.9300207 L11.5555709,17.9300207 C12.7076676,17.9300207 13.6399296,17.0252588 13.6399296,15.915942 L13.6399296,15.915942 L13.6399296,9.33871636 Z M7.5,12 C7.77614237,12 8,12.2238576 8,12.5 L8,14.5 C8,14.7761424 7.77614237,15 7.5,15 C7.22385763,15 7,14.7761424 7,14.5 L7,12.5 C7,12.2238576 7.22385763,12 7.5,12 Z" id="形状结合"></path>
                </g>
            </g>
        </g>
    </g>
</svg>