<?xml version="1.0" encoding="UTF-8"?>
<svg width="18px" height="21px" viewBox="0 0 18 21" version="1.1" xmlns="http://www.w3.org/2000/svg" xmlns:xlink="http://www.w3.org/1999/xlink">
    <!-- Generator: Sketch 63.1 (92452) - https://sketch.com -->
    <title>形状结合</title>
    <desc>Created with Sketch.</desc>
    <g id="页面-1" stroke="none" stroke-width="1" fill="none" fill-rule="evenodd">
        <g id="登录" transform="translate(-55.000000, -231.000000)" fill="#0074FF" fill-rule="nonzero" stroke="#0074FF" stroke-width="0.8">
            <g id="username" transform="translate(36.000000, 217.000000)">
                <g id="user_icon" transform="translate(20.000000, 15.000000)">
                    <path d="M3.98884834,11.0839114 C4.22384428,10.9301037 4.54744526,10.9837575 4.71309813,11.2019498 C4.87875101,11.4201422 4.82096513,11.7206038 4.58596918,11.8744115 C4.52047851,11.9137576 3.98722628,12.9081424 2.06873479,13.3659886 C1.17112733,13.6628732 1.07096513,14.5535272 1.04399838,15.3690658 C1.04399838,15.4012581 1.04014599,15.4298735 1.04014599,15.4584889 C1.0324412,15.780412 1.05940795,16.2776044 1.12104623,16.5637582 C1.74898621,16.8928352 4.21066504,18.0338738 7.91666667,18.0338738 C11.6380779,18.0338738 14.0843471,16.8964121 14.7084347,16.5673352 C14.770073,16.2811813 14.7931873,15.7839889 14.789335,15.4620658 C14.7854826,15.4334504 14.7854826,15.404835 14.7854826,15.3726427 C14.7585158,14.5571041 14.6583536,13.6664502 13.7607461,13.3695655 C11.8422547,12.9117193 11.3090024,11.9209115 11.2435118,11.8779884 C11.0085158,11.7241807 10.9507299,11.4237191 11.1163828,11.2055268 C11.2820357,10.9873344 11.6056367,10.9336806 11.8406326,11.0874883 C11.8560422,11.0982191 12.3006894,12.0282192 14.0381184,12.4395654 C14.0496756,12.4431423 14.0650852,12.4467192 14.0766423,12.4502962 C15.7485807,12.9796809 15.7986618,14.6357965 15.8217762,15.3440273 C15.8217762,15.3762196 15.8256285,15.404835 15.8256285,15.4334504 L15.8256285,15.4334504 L15.8256285,15.4441812 C15.8294809,15.6301812 15.8333333,16.5852198 15.6407137,17.0609506 C15.6021898,17.1539506 15.5289943,17.2326429 15.4403893,17.2862968 C15.3248175,17.3542583 12.5549473,18.9960663 7.92051906,18.9960663 C3.28609084,18.9960663 0.5162206,17.3578353 0.400648824,17.2862968 C0.308191403,17.2326429 0.238848337,17.1539506 0.200324412,17.0609506 C-0.00385239254,16.5816429 -1.02893388e-13,15.6266043 0.00385239254,15.4406042 L0.00385239254,15.4406042 L0.00385239254,15.4298735 C0.00770478508,15.4012581 0.00770478508,15.3726427 0.00770478508,15.3404504 C0.0308191403,14.6357965 0.0809002433,12.9796809 1.75283861,12.4467192 C1.76439578,12.4431423 1.77595296,12.4395654 1.79136253,12.4359885 C3.53649635,12.0246423 3.97343877,11.0946421 3.98884834,11.0839114 Z M7.95519059,3.73034936e-14 C8.73337388,0.0157349896 9.43065693,0.204554865 10.0277778,0.554658385 C10.8290754,1.02277433 11.7998783,2.02587992 11.8961882,4.12256729 C11.9231549,4.40186335 12.169708,7.32857143 10.6865369,9.03581781 C10.0123682,9.81076605 9.09935118,10.215942 7.97060016,10.2356108 L7.97060016,10.2356108 L7.8473236,10.2356108 C6.71857259,10.215942 5.80555556,9.81076605 5.13523925,9.03581781 C3.65206813,7.32857143 3.89862125,4.40186335 3.925588,4.12256729 C4.02189781,2.01014493 5.0081103,1.00703934 5.81711273,0.538923395 C6.62226277,0.0708074534 7.46208435,3.73034936e-14 7.88969992,3.73034936e-14 L7.88969992,3.73034936e-14 Z M7.93207624,1.06604555 L7.80649405,1.06694161 C6.92886935,1.08671488 5.08130576,1.4544137 4.9580292,4.18944099 C4.9580292,4.19730849 4.9541768,4.20910973 4.9541768,4.22091097 C4.95032441,4.24451346 4.68836172,6.93126294 5.90957015,8.33167702 C6.39111922,8.89026915 7.04217356,9.16563147 7.88969992,9.17349896 L7.88969992,9.17349896 L7.92822384,9.17349896 C8.7796026,9.16563147 9.42680454,8.89026915 9.912206,8.33167702 C11.1372668,6.92339545 10.8675994,4.2484472 10.863747,4.22091097 C10.8598946,4.21304348 10.8598946,4.20124224 10.8598946,4.18944099 C10.7404704,1.52236025 8.97222222,1.08964803 7.93207624,1.06604555 L7.93207624,1.06604555 Z" id="形状结合"></path>
                </g>
            </g>
        </g>
    </g>
</svg>