<?xml version="1.0" encoding="UTF-8"?>
<svg width="12px" height="13px" viewBox="0 0 12 13" version="1.1" xmlns="http://www.w3.org/2000/svg" xmlns:xlink="http://www.w3.org/1999/xlink">
    <!-- Generator: Sketch 63.1 (92452) - https://sketch.com -->
    <title>search icon</title>
    <desc>Created with Sketch.</desc>
    <g id="页面-1" stroke="none" stroke-width="1" fill="none" fill-rule="evenodd">
        <g id="列表展示界面" transform="translate(-25.000000, -82.000000)" fill="#8E8E93">
            <g id="search-icon" transform="translate(25.000000, 82.000000)">
                <path d="M1.29784615,4.77007143 C1.29784615,2.86 2.84215385,1.30557143 4.74092308,1.30557143 C6.63969231,1.30557143 8.184,2.86 8.184,4.77007143 C8.184,6.67921429 6.63969231,8.23364286 4.74092308,8.23364286 C2.84215385,8.23364286 1.29784615,6.67921429 1.29784615,4.77007143 M11.5421538,11.0156429 L8.37415385,7.82878571 C9.06461538,7.0005 9.48276923,5.93357143 9.48276923,4.77007143 C9.48276923,2.14035714 7.35507692,0 4.74092308,0 C2.12676923,0 0,2.14035714 0,4.77007143 C0,7.39978571 2.12676923,9.53921429 4.74092308,9.53921429 C5.73138462,9.53921429 6.65076923,9.23092857 7.41230769,8.70721429 L10.6246154,11.9386429 C10.7501538,12.0658571 10.9163077,12.1299286 11.0833846,12.1299286 C11.2495385,12.1299286 11.4156923,12.0658571 11.5421538,11.9386429 C11.7950769,11.6842143 11.7950769,11.2700714 11.5421538,11.0156429" id="Fill-40"></path>
            </g>
        </g>
    </g>
</svg>