<?xml version="1.0" encoding="UTF-8"?>
<svg width="10px" height="6px" viewBox="0 0 10 6" version="1.1" xmlns="http://www.w3.org/2000/svg" xmlns:xlink="http://www.w3.org/1999/xlink">
  <!-- Generator: Sketch 63.1 (92452) - https://sketch.com -->
  <title>形状结合</title>
  <desc>Created with Sketch.</desc>
  <g id="页面-1" stroke="none" stroke-width="1" fill="none" fill-rule="evenodd">
    <g id="首页-工作台" transform="translate(-335.000000, -384.000000)" fill="#ffffff">
      <g id="编组-16" transform="translate(15.000000, 359.000000)">
        <path d="M323.64046,23.2799861 L327.719055,27.3262453 L327.719055,27.3262453 C328.091505,27.6957593 328.093885,28.29724 327.724371,28.66969 C327.7226,28.6714752 327.720821,28.6732533 327.719036,28.6750244 L323.64046,32.7212284 C323.264158,33.0945437 322.657213,33.0945431 322.280912,32.7212272 C321.908462,32.3517326 321.906067,31.750268 322.275561,31.3778185 C322.277338,31.3760277 322.279122,31.3742439 322.280913,31.3724673 L325.68,28 L322.280913,24.6287472 C321.908463,24.259253 321.906066,23.6577885 322.275561,23.2853385 C322.277337,23.2835477 322.279121,23.2817639 322.280912,23.2799873 C322.657213,22.9066714 323.264158,22.9066708 323.64046,23.2799861 Z" id="形状结合" transform="translate(324.999978, 28.000607) rotate(-270.000000) translate(-324.999978, -28.000607) "></path>
      </g>
    </g>
  </g>
</svg>
