<?xml version="1.0" encoding="UTF-8"?>
<svg width="22px" height="22px" viewBox="0 0 22 22" version="1.1" xmlns="http://www.w3.org/2000/svg" xmlns:xlink="http://www.w3.org/1999/xlink">
    <!-- Generator: Sketch 63.1 (92452) - https://sketch.com -->
    <title>编组</title>
    <desc>Created with Sketch.</desc>
    <defs>
        <linearGradient x1="100%" y1="56.823138%" x2="25.4258469%" y2="45.2519036%" id="linearGradient-1">
            <stop stop-color="#0074FF" offset="0%"></stop>
            <stop stop-color="#3390FF" offset="100%"></stop>
        </linearGradient>
        <linearGradient x1="100%" y1="60.6611532%" x2="25.4258469%" y2="42.5810994%" id="linearGradient-2">
            <stop stop-color="#0074FF" offset="0%"></stop>
            <stop stop-color="#3390FF" offset="100%"></stop>
        </linearGradient>
    </defs>
    <g id="页面-1" stroke="none" stroke-width="1" fill="none" fill-rule="evenodd" stroke-linecap="round" stroke-linejoin="round">
        <g id="icon" transform="translate(-223.000000, -47.000000)" stroke="#FFFFFF">
            <g id="编组" transform="translate(223.000000, 48.000000)">
                <path d="M5.57913669,12 L1.87050915,13.7806381 C1.37263774,14.019683 1.16281745,14.6170718 1.40186243,15.1149432 C1.49982822,15.3189817 1.66411457,15.483751 1.86786455,15.5823154 L9.69357856,19.3680166 C10.518784,19.767211 11.481216,19.767211 12.3064214,19.3680166 L20.1321354,15.5823154 C20.629303,15.3418098 20.8373686,14.7438077 20.596863,14.2466402 C20.4982987,14.0428902 20.3335293,13.8786038 20.1294909,13.7806381 L16.4208633,12 L16.4208633,12" id="Shape" fill="url(#linearGradient-1)"></path>
                <path d="M5.65827338,7 L1.88140917,8.80403816 C1.38305674,9.0420787 1.17203226,9.63904316 1.4100728,10.1373956 C1.50818633,10.3428023 1.67344436,10.5085875 1.87853752,10.6073547 L9.69835347,14.3731629 C10.5209119,14.7692844 11.4790881,14.7692844 12.3016465,14.3731629 L20.1214625,10.6073547 C20.6190543,10.3677282 20.8281764,9.77009466 20.5885499,9.27250288 C20.4897827,9.06740972 20.3239975,8.90215169 20.1185908,8.80403816 L16.3417266,7 L16.3417266,7" id="Shape" fill="url(#linearGradient-1)"></path>
                <path d="M9.75859117,0.564276742 L2.00280625,4.08963352 C1.50002473,4.31817058 1.27770566,4.91102142 1.50624272,5.41380294 C1.60629176,5.63391084 1.78269835,5.81031743 2.00280625,5.91036648 L9.75859117,9.43572326 C10.5473662,9.79425735 11.4526338,9.79425735 12.2414088,9.43572326 L19.9971937,5.91036648 C20.4999753,5.68182942 20.7222943,5.08897858 20.4937573,4.58619706 C20.3937082,4.36608916 20.2173016,4.18968257 19.9971937,4.08963352 L12.2414088,0.564276742 C11.4526338,0.205742652 10.5473662,0.205742652 9.75859117,0.564276742 Z" id="Shape" fill="url(#linearGradient-2)"></path>
            </g>
        </g>
    </g>
</svg>