<?xml version="1.0" encoding="UTF-8"?>
<svg width="14px" height="14px" viewBox="0 0 14 14" version="1.1" xmlns="http://www.w3.org/2000/svg" xmlns:xlink="http://www.w3.org/1999/xlink">
    <!-- Generator: Sketch 63.1 (92452) - https://sketch.com -->
    <title>形状结合</title>
    <desc>Created with Sketch.</desc>
    <g id="页面-1" stroke="none" stroke-width="1" fill="none" fill-rule="evenodd">
        <g id="首页-工作台" transform="translate(-15.000000, -82.000000)" fill="#FF6C00">
            <path d="M25.6666667,82 C26.22,82 26.6666667,82.4466667 26.6666667,83 L26.6666667,83 L26.6666667,83.6666667 L27.3333333,83.6666667 C28.2533333,83.6666667 29,84.4133333 29,85.3333333 L29,85.3333333 L29,94.3333333 C29,95.2533333 28.2533333,96 27.3333333,96 L27.3333333,96 L16.6666667,96 C15.7466667,96 15,95.2533333 15,94.3333333 L15,94.3333333 L15,85.3333333 C15,84.4133333 15.7466667,83.6666667 16.6666667,83.6666667 L16.6666667,83.6666667 L17.3333333,83.6666667 L17.3333333,83 C17.3333333,82.4466667 17.78,82 18.3333333,82 C18.8866667,82 19.3333333,82.4466667 19.3333333,83 L19.3333333,83 L19.3333333,83.6666667 L24.6666667,83.6666667 L24.6666667,83 C24.6666667,82.4466667 25.1133333,82 25.6666667,82 Z M27,87 L17,87 C16.8166667,87 16.6666667,87.15 16.6666667,87.3333333 L16.6666667,87.3333333 L16.6666667,94 C16.6666667,94.1833333 16.8166667,94.3333333 17,94.3333333 L17,94.3333333 L27,94.3333333 C27.1833333,94.3333333 27.3333333,94.1833333 27.3333333,94 L27.3333333,94 L27.3333333,87.3333333 C27.3333333,87.15 27.1833333,87 27,87 L27,87 Z M19,91 C19.552,91 20,91.45 20,92 C20,92.555 19.552,93 19,93 C18.4475,93 18,92.555 18,92 C18,91.45 18.4475,91 19,91 Z M22,91 C22.552,91 23,91.45 23,92 C23,92.555 22.552,93 22,93 C21.4475,93 21,92.555 21,92 C21,91.45 21.4475,91 22,91 Z M25,91 C25.552,91 26,91.45 26,92 C26,92.555 25.552,93 25,93 C24.4475,93 24,92.555 24,92 C24,91.45 24.4475,91 25,91 Z M19,88 C19.552,88 20,88.45 20,89 C20,89.555 19.552,90 19,90 C18.4475,90 18,89.555 18,89 C18,88.45 18.4475,88 19,88 Z M22,88 C22.552,88 23,88.45 23,89 C23,89.555 22.552,90 22,90 C21.4475,90 21,89.555 21,89 C21,88.45 21.4475,88 22,88 Z M25,88 C25.552,88 26,88.45 26,89 C26,89.555 25.552,90 25,90 C24.4475,90 24,89.555 24,89 C24,88.45 24.4475,88 25,88 Z" id="形状结合"></path>
        </g>
    </g>
</svg>