<?xml version="1.0" encoding="UTF-8"?>
<svg width="14px" height="14px" viewBox="0 0 14 14" version="1.1" xmlns="http://www.w3.org/2000/svg" xmlns:xlink="http://www.w3.org/1999/xlink">
    <!-- Generator: Sketch 63.1 (92452) - https://sketch.com -->
    <title>Combined Shape</title>
    <desc>Created with Sketch.</desc>
    <g id="页面-1" stroke="none" stroke-width="1" fill="none" fill-rule="evenodd" stroke-linecap="round" stroke-linejoin="round">
        <g id="登录" transform="translate(-312.000000, -42.000000)" stroke="#333333">
            <path d="M319.640824,43 C320.171846,43 320.602324,43.4026928 320.602324,43.9019504 L320.602324,44.7275841 C321.184377,44.908188 321.717096,45.1901168 322.176628,45.5510422 L322.915054,45.1519371 C323.375879,44.9028704 323.965547,45.05135 324.230201,45.4804704 L324.871024,46.5195296 C325.136535,46.9500402 324.979242,47.5003845 324.517378,47.7500133 L323.806877,48.1340259 C323.865229,48.4142563 323.895802,48.7037858 323.895802,49 C323.895802,49.2962142 323.865229,49.5857437 323.806877,49.8659741 L324.517378,50.2499867 C324.979242,50.4996155 325.136535,51.0499598 324.871024,51.4804704 L324.230201,52.5195296 C323.965547,52.94865 323.375879,53.0971296 322.915054,52.8480629 L322.176628,52.4489578 C321.717096,52.8098832 321.184377,53.091812 320.602324,53.2724159 L320.602324,54.0980496 C320.602324,54.5961831 320.170131,55 319.640824,55 L318.359176,55 C317.828154,55 317.397676,54.5973072 317.397676,54.0980496 L317.397676,53.2136191 C316.854755,53.0225659 316.358538,52.7421909 315.929458,52.3916201 L315.084946,52.8480629 C314.624121,53.0971296 314.034453,52.94865 313.769799,52.5195296 L313.128976,51.4804704 C312.863465,51.0499598 313.020758,50.4996155 313.482622,50.2499867 L314.353662,49.779206 C314.306466,49.5261093 314.281859,49.2657448 314.281859,49 C314.281859,48.7342552 314.306466,48.4738907 314.353662,48.220794 L313.482622,47.7500133 C313.020758,47.5003845 312.863465,46.9500402 313.128976,46.5195296 L313.769799,45.4804704 C314.034453,45.05135 314.624121,44.9028704 315.084946,45.1519371 L315.929458,45.6083799 C316.358538,45.2578091 316.854755,44.9774341 317.397676,44.7863809 L317.397676,43.9019504 C317.397676,43.4038169 317.829869,43 318.359176,43 L319.640824,43 Z M319,47 C317.895431,47 317,47.8954305 317,49 C317,50.1045695 317.895431,51 319,51 C320.104569,51 321,50.1045695 321,49 C321,47.8954305 320.104569,47 319,47 Z" id="Combined-Shape"></path>
        </g>
    </g>
</svg>