<?xml version="1.0" encoding="UTF-8"?>
<svg width="17px" height="20px" viewBox="0 0 17 20" version="1.1" xmlns="http://www.w3.org/2000/svg" xmlns:xlink="http://www.w3.org/1999/xlink">
    <!-- Generator: Sketch 63.1 (92452) - https://sketch.com -->
    <title>Page 1备份</title>
    <desc>Created with Sketch.</desc>
    <g id="页面-1" stroke="none" stroke-width="1" fill="none" fill-rule="evenodd">
        <g id="icon" transform="translate(-131.000000, -106.000000)" fill="#9DA7C0">
            <path d="M141,108.2 L141,107.5 C141,106.7 140.3,106 139.5,106 C138.7,106 138,106.7 138,107.5 L138,108.2 C135.1,108.9 133,111.4 133,114.5 L133,120 L131,122 L131,123 L148,123 L148,122 L146,120 L146,114.5 C146,111.4 143.9,108.9 141,108.2 Z M140.5,126 L141,126 C141.875,125.9 142.5,125.4 142.75,124.799999 C142.875,124.6 143,124.299999 143,124 L138,124 C138,125.1 139.125,126 140.5,126 L140.5,126 Z" id="Page-1备份"></path>
        </g>
    </g>
</svg>