<?xml version="1.0" encoding="UTF-8"?>
<svg width="18px" height="18px" viewBox="0 0 18 18" version="1.1" xmlns="http://www.w3.org/2000/svg" xmlns:xlink="http://www.w3.org/1999/xlink">
    <!-- Generator: Sketch 63.1 (92452) - https://sketch.com -->
    <title>Color备份</title>
    <desc>Created with Sketch.</desc>
    <g id="页面-1" stroke="none" stroke-width="1" fill="none" fill-rule="evenodd">
        <g id="icon" transform="translate(-37.000000, -107.000000)" fill="#9DA7C0">
            <path d="M46.6156,107.211961 C46.27315,106.932176 45.7408,106.929046 45.39295,107.204526 L37.7596211,113.739754 C37.340094,114.098929 37,114.837312 37,115.392734 L37,123.927427 C37,124.528866 37.5688,125 38.2942,125 L42.85,125 C43.3468,125 43.75,124.649389 43.75,124.217386 L43.75,119.913007 L48.25,119.913007 L48.25,124.217386 C48.25,124.649389 48.65275,125 49.15,125 L53.7058,125 C54.4312,125 55,124.528866 55,123.927427 L55,115.392734 C55,114.838994 54.6609372,114.099817 54.2411527,113.740426 L46.6156,107.211961 Z" id="Color备份"></path>
        </g>
    </g>
</svg>